# xmcd
#
# Track frame offsets: 
#        150
#        17344
#        32294
#        51261
#        70063
#        80362
#        106225
#        121731
#        147640
#        160795
#        177125
#        190011
#        211354
#
# Disc length: 3035 seconds
#
# Revision: 0
# Processed by: cddbd v1.5.2PL0 Copyright (c) Steve Scherf et al.
# Submitted via: ExactAudioCopyFreeDBPlugin 1.0
#
DISCID=9f0bd90d
DTITLE=Estampida - Crowd Control - The Jaws Of War
DYEAR=2012
DGENRE=Death/Thrash Metal
TTITLE0=Crowd Control
TTITLE1=The Business Of The Gods
TTITLE2=Is There Anybody Out There?
TTITLE3=Run
TTITLE4=Just Call Me Death
TTITLE5=Act Of God
TTITLE6=We'll Wait Together
TTITLE7=Ironic
TTITLE8=Channel N Bullshit
TTITLE9=I.R.B.A.
TTITLE10=Jaws Of War
TTITLE11=Insane (bonus)
TTITLE12=Brainwashers (bonus)
EXTD=
EXTT0=
EXTT1=
EXTT2=
EXTT3=
EXTT4=
EXTT5=
EXTT6=
EXTT7=
EXTT8=
EXTT9=
EXTT10=
EXTT11=
EXTT12=
PLAYORDER=
